{
	"asset":{
		"generator":"Khronos glTF Blender I/O v3.6.27",
		"version":"2.0"
	},
	"scene":0,
	"scenes":[
		{
			"name":"Scene",
			"nodes":[
				0
			]
		}
	],
	"nodes":[
		{
			"mesh":0,
			"name":"Text",
			"rotation":[
				0.7071038484573364,
				0,
				0,
				0.707109808921814
			],
			"translation":[
				0,
				1.659725546836853,
				0
			]
		}
	],
	"meshes":[
		{
			"name":"Text.010",
			"primitives":[
				{
					"attributes":{
						"POSITION":0,
						"NORMAL":1,
						"TEXCOORD_0":2
					},
					"indices":3
				}
			]
		}
	],
	"accessors":[
		{
			"bufferView":0,
			"componentType":5126,
			"count":7322,
			"max":[
				0.6126207709312439,
				0.04999999701976776,
				3.8167271614074707
			],
			"min":[
				0.03894927352666855,
				-0.04999999701976776,
				-0.5117753744125366
			],
			"type":"VEC3"
		},
		{
			"bufferView":1,
			"componentType":5126,
			"count":7322,
			"type":"VEC3"
		},
		{
			"bufferView":2,
			"componentType":5126,
			"count":7322,
			"type":"VEC2"
		},
		{
			"bufferView":3,
			"componentType":5123,
			"count":21780,
			"type":"SCALAR"
		}
	],
	"bufferViews":[
		{
			"buffer":0,
			"byteLength":87864,
			"byteOffset":0,
			"target":34962
		},
		{
			"buffer":0,
			"byteLength":87864,
			"byteOffset":87864,
			"target":34962
		},
		{
			"buffer":0,
			"byteLength":58576,
			"byteOffset":175728,
			"target":34962
		},
		{
			"buffer":0,
			"byteLength":43560,
			"byteOffset":234304,
			"target":34963
		}
	],
	"buffers":[
		{
			"byteLength":277864,
			"uri":"data:application/octet-stream;base64,"
		}
	]
}
